<?xml version="1.0" encoding="UTF-8"?>
<svg width="923px" height="928px" viewBox="0 0 923 928" version="1.1" xmlns="http://www.w3.org/2000/svg" xmlns:xlink="http://www.w3.org/1999/xlink">
    <!-- Generator: Sketch 47.1 (45422) - http://www.bohemiancoding.com/sketch -->
    <title>logo_2018</title>
    <desc>Created with Sketch.</desc>
    <defs></defs>
    <g id="Page-1" stroke="none" stroke-width="1" fill="none" fill-rule="evenodd">
        <g id="logo_2018" fill-rule="nonzero">
            <rect id="Rectangle-path" fill="#83D2E6" x="145.47" y="0.32" width="145.03" height="386.03"></rect>
            <rect id="Rectangle-path" fill="#8969AE" x="0.13" y="59.38" width="145.34" height="618.6"></rect>
            <rect id="Rectangle-path" fill="#EC5958" x="145.47" y="800.21" width="486.59" height="127.45"></rect>
            <rect id="Rectangle-path" fill="#B35CA4" x="632.06" y="1.32" width="145.35" height="323.29"></rect>
            <rect id="Rectangle-path" fill="#69BAE8" x="777.41" y="59.38" width="145.34" height="336.17"></rect>
            <rect id="Rectangle-path" fill="#EFE564" x="290.5" y="650.96" width="341.55" height="149.25"></rect>
            <rect id="Rectangle-path" fill="#8BCFB7" x="813.74" y="395.55" width="36.34" height="35.26"></rect>
            <rect id="Rectangle-path" fill="#8BCFB7" x="886.41" y="395.55" width="36.34" height="35.26"></rect>
            <rect id="Rectangle-path" fill="#8BCFB7" x="777.41" y="430.81" width="36.33" height="35.25"></rect>
            <rect id="Rectangle-path" fill="#8BCFB7" x="850.08" y="430.81" width="36.34" height="35.25"></rect>
            <rect id="Rectangle-path" fill="#8BCFB7" x="813.74" y="466.06" width="36.34" height="35.26"></rect>
            <rect id="Rectangle-path" fill="#8BCFB7" x="886.41" y="466.06" width="36.34" height="35.26"></rect>
            <rect id="Rectangle-path" fill="#8BCFB7" x="777.41" y="501.32" width="36.33" height="35.26"></rect>
            <rect id="Rectangle-path" fill="#8BCFB7" x="850.08" y="501.32" width="36.34" height="35.26"></rect>
            <rect id="Rectangle-path" fill="#8BCFB7" x="813.74" y="536.58" width="36.34" height="35.26"></rect>
            <rect id="Rectangle-path" fill="#8BCFB7" x="886.41" y="536.58" width="36.34" height="35.26"></rect>
            <rect id="Rectangle-path" fill="#8BCFB7" x="777.41" y="571.83" width="36.33" height="35.26"></rect>
            <rect id="Rectangle-path" fill="#8BCFB7" x="850.08" y="571.83" width="36.34" height="35.26"></rect>
            <rect id="Rectangle-path" fill="#8BCFB7" x="813.74" y="607.1" width="36.34" height="35.25"></rect>
            <rect id="Rectangle-path" fill="#8BCFB7" x="886.41" y="607.1" width="36.34" height="35.25"></rect>
            <rect id="Rectangle-path" fill="#8BCFB7" x="777.41" y="642.34" width="36.33" height="35.26"></rect>
            <rect id="Rectangle-path" fill="#8BCFB7" x="850.08" y="642.34" width="36.34" height="35.26"></rect>
            <rect id="Rectangle-path" fill="#8BCFB7" x="813.74" y="677.61" width="36.34" height="35.26"></rect>
            <rect id="Rectangle-path" fill="#8BCFB7" x="886.41" y="677.61" width="36.34" height="35.26"></rect>
            <rect id="Rectangle-path" fill="#8BCFB7" x="777.41" y="712.86" width="36.33" height="35.26"></rect>
            <rect id="Rectangle-path" fill="#8BCFB7" x="850.08" y="712.86" width="36.34" height="35.26"></rect>
            <rect id="Rectangle-path" fill="#8BCFB7" x="813.74" y="748.12" width="36.34" height="35.26"></rect>
            <rect id="Rectangle-path" fill="#8BCFB7" x="886.41" y="748.12" width="36.34" height="35.26"></rect>
            <rect id="Rectangle-path" fill="#8BCFB7" x="777.41" y="783.38" width="36.33" height="35.26"></rect>
            <rect id="Rectangle-path" fill="#8BCFB7" x="850.08" y="783.38" width="36.34" height="35.26"></rect>
            <rect id="Rectangle-path" fill="#F06498" x="181.73" y="386.35" width="36.26" height="37.19"></rect>
            <rect id="Rectangle-path" fill="#F06498" x="254.24" y="386.35" width="36.27" height="37.19"></rect>
            <rect id="Rectangle-path" fill="#F06498" x="145.47" y="423.53" width="36.26" height="38"></rect>
            <rect id="Rectangle-path" fill="#F06498" x="217.98" y="423.53" width="36.26" height="38"></rect>
            <rect id="Rectangle-path" fill="#F06498" x="181.73" y="461.53" width="36.26" height="38"></rect>
            <rect id="Rectangle-path" fill="#F06498" x="254.24" y="461.53" width="36.27" height="38"></rect>
            <rect id="Rectangle-path" fill="#F06498" x="145.47" y="499.53" width="36.26" height="38"></rect>
            <rect id="Rectangle-path" fill="#F06498" x="217.98" y="499.53" width="36.26" height="38"></rect>
            <rect id="Rectangle-path" fill="#F06498" x="181.73" y="537.53" width="36.26" height="38"></rect>
            <rect id="Rectangle-path" fill="#F06498" x="254.24" y="537.53" width="36.27" height="38"></rect>
            <rect id="Rectangle-path" fill="#F06498" x="217.98" y="575.53" width="36.26" height="38"></rect>
            <rect id="Rectangle-path" fill="#F06498" x="254.24" y="613.53" width="36.27" height="38"></rect>
            <path d="M668.395,679.34 L632.06,679.34 L632.06,714.82 L668.395,714.82 L704.73,714.82 L704.73,679.34 L668.395,679.34 Z M668.395,643.87 L632.06,643.87 L632.06,679.34 L668.395,679.34 L704.73,679.34 L704.73,643.87 L668.395,643.87 Z M632.06,324.6 L777.41,324.6 L777.41,643.87 L632.06,643.87 L632.06,324.6 Z M704.73,643.87 L741.07,643.87 L741.07,679.34 L704.73,679.34 L704.73,643.87 Z M632.06,714.82 L668.4,714.82 L668.4,750.3 L632.06,750.3 L632.06,714.82 Z" id="Combined-Shape" fill="#EFA02E"></path>
            <rect id="Rectangle-path" fill="#EFA02E" x="741.08" y="679.34" width="36.33" height="35.48"></rect>
            <rect id="Rectangle-path" fill="#EFA02E" x="704.73" y="714.82" width="36.34" height="35.48"></rect>
            <rect id="Rectangle-path" fill="#EFA02E" x="668.39" y="750.29" width="36.34" height="35.47"></rect>
            <rect id="Rectangle-path" fill="#EFA02E" x="741.08" y="750.29" width="36.33" height="35.47"></rect>
            <rect id="Rectangle-path" fill="#EFA02E" x="632.06" y="785.77" width="36.34" height="35.48"></rect>
            <rect id="Rectangle-path" fill="#EFA02E" x="704.73" y="785.77" width="36.34" height="35.48"></rect>
            <rect id="Rectangle-path" fill="#EFA02E" x="668.39" y="821.24" width="36.34" height="35.47"></rect>
            <rect id="Rectangle-path" fill="#EFA02E" x="741.08" y="821.24" width="36.33" height="35.47"></rect>
            <rect id="Rectangle-path" fill="#EFA02E" x="632.06" y="856.72" width="36.34" height="35.48"></rect>
            <rect id="Rectangle-path" fill="#EFA02E" x="704.73" y="856.72" width="36.34" height="35.48"></rect>
            <rect id="Rectangle-path" fill="#EFA02E" x="668.39" y="892.19" width="36.34" height="35.48"></rect>
            <rect id="Rectangle-path" fill="#EFA02E" x="741.08" y="892.19" width="36.33" height="35.48"></rect>
            <rect id="Rectangle-path" fill="#B357A1" x="0.13" y="677.25" width="145.339996" height="146.1"></rect>
            <path d="M217.99,651.787177 L254.24,651.787177 L254.24,800.999965 L217.99,800.999965 L217.99,801.01 L181.73,801.01 L181.73,613.663606 L217.99,613.663606 L217.99,651.787177 Z M145.47,575.53 L181.73,575.53 L181.73,801.01 L145.47,801.01 L145.47,575.53 Z M254.24,689.920784 L290.51,689.920784 L290.51,800.999965 L254.24,800.999965 L254.24,689.920784 Z" id="Combined-Shape" fill="#F06498"></path>
        </g>
    </g>
</svg>